<?xml version="1.0" encoding="utf-8"?>
<!-- Generator: Adobe Illustrator 21.1.0, SVG Export Plug-In . SVG Version: 6.00 Build 0)  -->
<svg version="1.1" id="Capa_1" xmlns="http://www.w3.org/2000/svg" xmlns:xlink="http://www.w3.org/1999/xlink" x="0px" y="0px"
	 viewBox="0 0 1792 1792" style="enable-background:new 0 0 1792 1792;" xml:space="preserve">
<style type="text/css">
	.st0{fill:none;}
</style>
<path class="st0" d="M278,1204.8c10-31.2,23.4-61.6,40.3-91.3s36.2-54.9,58.1-75.9c21.9-20.9,48.5-37.6,80.1-50.1
	c31.5-12.5,66.3-18.7,104.4-18.7c5.6,0,18.7,6.7,39.3,20.1c20.6,13.4,43.9,28.4,69.8,44.9c25.9,16.5,59.6,31.5,101.1,44.9
	c41.5,13.4,83.2,20.1,125,20.1s83.5-6.7,125-20.1c41.5-13.4,75.2-28.4,101.1-44.9c25.9-16.5,49.2-31.5,69.8-44.9
	c20.6-13.4,33.7-20.1,39.3-20.1c38.1,0,72.9,6.2,104.4,18.7s58.2,29.2,80.1,50.1c21.9,20.9,41.2,46.2,58.1,75.9s30.3,60.1,40.3,91.3
	c10,31.2,18.3,65.1,24.8,101.6c1.3,7.1,2.5,14.1,3.6,21c27.1-40.5,50.4-83.6,69.5-129c40.5-95.8,61-197.5,61-302.4
	s-20.5-206.7-61-302.4c-39.1-92.5-95.2-175.6-166.5-247c-71.4-71.4-154.5-127.4-247-166.5c-95.8-40.5-197.5-61-302.4-61
	s-206.7,20.5-302.4,61c-92.5,39.1-175.6,95.2-247,166.5C275.2,417.9,219.2,501,180,593.6c-40.5,95.8-61,197.5-61,302.4
	s20.5,206.7,61,302.4c19.2,45.3,42.4,88.4,69.5,129c1.1-6.9,2.3-13.9,3.6-21C259.7,1269.8,268,1236,278,1204.8z M641.8,414.9
	c70.2-70.2,155-105.3,254.2-105.3s184,35.1,254.2,105.3s105.3,155,105.3,254.2s-35.1,184-105.3,254.2s-155,105.3-254.2,105.3
	s-184-35.1-254.2-105.3s-105.3-155-105.3-254.2S571.5,485.1,641.8,414.9z"/>
<path d="M896,1028.7c99.3,0,184-35.1,254.2-105.3s105.3-155,105.3-254.2s-35.1-184-105.3-254.2S995.3,309.5,896,309.5
	s-184,35.1-254.2,105.3s-105.3,155-105.3,254.2s35.1,184,105.3,254.2S796.7,1028.7,896,1028.7z"/>
<path d="M1694.9,558.5c-43.7-103.3-106.2-196-185.8-275.6c-79.6-79.6-172.3-142.1-275.6-185.8C1126.6,51.9,1013,29,896,29
	S665.4,51.9,558.5,97.1c-103.3,43.7-196,106.2-275.6,185.8S140.8,455.2,97.1,558.5C51.9,665.4,29,779,29,896s22.9,230.6,68.2,337.5
	c43.7,103.2,106.2,196,185.8,275.6c79.6,79.6,172.3,142.1,275.6,185.8C665.4,1740.1,779,1763,896,1763s230.6-22.9,337.5-68.2
	c103.2-43.7,196-106.2,275.6-185.8c79.6-79.6,142.1-172.3,185.8-275.6c45.2-106.9,68.2-220.5,68.2-337.5S1740.1,665.4,1694.9,558.5z
	 M1538.9,1306.4c-6.6-36.5-14.8-70.4-24.8-101.6c-10-31.2-23.4-61.6-40.3-91.3s-36.2-54.9-58.1-75.9c-21.9-20.9-48.5-37.6-80.1-50.1
	s-66.3-18.7-104.4-18.7c-5.6,0-18.7,6.7-39.3,20.1c-20.6,13.4-43.9,28.4-69.8,44.9c-25.9,16.5-59.6,31.5-101.1,44.9
	c-41.5,13.4-83.2,20.1-125,20.1s-83.5-6.7-125-20.1c-41.5-13.4-75.2-28.4-101.1-44.9c-25.9-16.5-49.2-31.5-69.8-44.9
	c-20.6-13.4-33.7-20.1-39.3-20.1c-38.1,0-72.9,6.2-104.4,18.7c-31.5,12.5-58.2,29.2-80.1,50.1c-21.9,20.9-41.2,46.2-58.1,75.9
	s-30.3,60.1-40.3,91.3c-10,31.2-18.3,65.1-24.8,101.6c-1.3,7.1-2.5,14.1-3.6,21c-27.1-40.5-50.4-83.6-69.5-129
	c-40.5-95.8-61-197.5-61-302.4s20.5-206.7,61-302.4c39.1-92.5,95.2-175.6,166.5-247c71.4-71.4,154.5-127.4,247-166.5
	c95.8-40.5,197.5-61,302.4-61s206.7,20.5,302.4,61c92.5,39.1,175.6,95.2,247,166.5c71.4,71.4,127.4,154.5,166.5,247
	c40.5,95.8,61,197.5,61,302.4s-20.5,206.7-61,302.4c-19.2,45.3-42.4,88.4-69.5,129C1541.3,1320.5,1540.1,1313.5,1538.9,1306.4z"/>
</svg>
