<svg id="Capa_1" xmlns="http://www.w3.org/2000/svg" viewBox="0 0 1792 1792"><style>.st0{fill:none}</style><path class="st0" d="M278 1204.8c10-31.2 23.4-61.6 40.3-91.3s36.2-54.9 58.1-75.9c21.9-20.9 48.5-37.6 80.1-50.1 31.5-12.5 66.3-18.7 104.4-18.7 5.6 0 18.7 6.7 39.3 20.1 20.6 13.4 43.9 28.4 69.8 44.9s59.6 31.5 101.1 44.9c41.5 13.4 83.2 20.1 125 20.1s83.5-6.7 125-20.1c41.5-13.4 75.2-28.4 101.1-44.9 25.9-16.5 49.2-31.5 69.8-44.9 20.6-13.4 33.7-20.1 39.3-20.1 38.1 0 72.9 6.2 104.4 18.7s58.2 29.2 80.1 50.1c21.9 20.9 41.2 46.2 58.1 75.9s30.3 60.1 40.3 91.3c10 31.2 18.3 65.1 24.8 101.6 1.3 7.1 2.5 14.1 3.6 21 27.1-40.5 50.4-83.6 69.5-129 40.5-95.8 61-197.5 61-302.4s-20.5-206.7-61-302.4c-39.1-92.5-95.2-175.6-166.5-247-71.4-71.4-154.5-127.4-247-166.5-95.8-40.5-197.5-61-302.4-61s-206.7 20.5-302.4 61c-92.5 39.1-175.6 95.2-247 166.5-71.6 71.3-127.6 154.4-166.8 247-40.5 95.8-61 197.5-61 302.4s20.5 206.7 61 302.4c19.2 45.3 42.4 88.4 69.5 129 1.1-6.9 2.3-13.9 3.6-21 6.6-36.6 14.9-70.4 24.9-101.6zm363.8-789.9c70.2-70.2 155-105.3 254.2-105.3s184 35.1 254.2 105.3 105.3 155 105.3 254.2-35.1 184-105.3 254.2-155 105.3-254.2 105.3-184-35.1-254.2-105.3-105.3-155-105.3-254.2 35-184 105.3-254.2z"/><path d="M896 1028.7c99.3 0 184-35.1 254.2-105.3s105.3-155 105.3-254.2-35.1-184-105.3-254.2S995.3 309.5 896 309.5s-184 35.1-254.2 105.3-105.3 155-105.3 254.2 35.1 184 105.3 254.2 154.9 105.5 254.2 105.5z"/><path d="M1694.9 558.5c-43.7-103.3-106.2-196-185.8-275.6-79.6-79.6-172.3-142.1-275.6-185.8C1126.6 51.9 1013 29 896 29S665.4 51.9 558.5 97.1c-103.3 43.7-196 106.2-275.6 185.8S140.8 455.2 97.1 558.5C51.9 665.4 29 779 29 896s22.9 230.6 68.2 337.5c43.7 103.2 106.2 196 185.8 275.6 79.6 79.6 172.3 142.1 275.6 185.8C665.4 1740.1 779 1763 896 1763s230.6-22.9 337.5-68.2c103.2-43.7 196-106.2 275.6-185.8 79.6-79.6 142.1-172.3 185.8-275.6 45.2-106.9 68.2-220.5 68.2-337.5s-23-230.5-68.2-337.4zm-156 747.9c-6.6-36.5-14.8-70.4-24.8-101.6-10-31.2-23.4-61.6-40.3-91.3s-36.2-54.9-58.1-75.9c-21.9-20.9-48.5-37.6-80.1-50.1s-66.3-18.7-104.4-18.7c-5.6 0-18.7 6.7-39.3 20.1-20.6 13.4-43.9 28.4-69.8 44.9s-59.6 31.5-101.1 44.9c-41.5 13.4-83.2 20.1-125 20.1s-83.5-6.7-125-20.1c-41.5-13.4-75.2-28.4-101.1-44.9-25.9-16.5-49.2-31.5-69.8-44.9-20.6-13.4-33.7-20.1-39.3-20.1-38.1 0-72.9 6.2-104.4 18.7s-58.2 29.2-80.1 50.1c-21.9 20.9-41.2 46.2-58.1 75.9s-30.3 60.1-40.3 91.3c-10 31.2-18.3 65.1-24.8 101.6-1.3 7.1-2.5 14.1-3.6 21-27.1-40.5-50.4-83.6-69.5-129-40.5-95.8-61-197.5-61-302.4s20.5-206.7 61-302.4c39.1-92.5 95.2-175.6 166.5-247 71.4-71.4 154.5-127.4 247-166.5 95.8-40.5 197.5-61 302.4-61s206.7 20.5 302.4 61c92.5 39.1 175.6 95.2 247 166.5 71.4 71.4 127.4 154.5 166.5 247 40.5 95.8 61 197.5 61 302.4s-20.5 206.7-61 302.4c-19.2 45.3-42.4 88.4-69.5 129-1-6.9-2.2-13.9-3.4-21z"/></svg>