<svg id="Capa_1" xmlns="http://www.w3.org/2000/svg" viewBox="0 0 1792 1792"><style>.st0{fill:none}</style><path d="M1656.4 1259.3c-2.5-35.7-7.5-74.5-14.8-115.5-7.4-41.4-17-80.5-28.4-116.2-11.9-37.1-28-73.7-48-108.9-20.8-36.6-45.2-68.4-72.7-94.7-28.9-27.6-64.1-49.8-104.9-65.9-27.3-10.8-56.5-18-87.4-21.6 26.4-56.8 39.8-119.2 39.8-186.5 0-122-43.8-227.6-130.1-313.9s-191.9-130-313.9-130c-122 0-227.6 43.8-313.9 130.1S452 428.1 452 550.1c0 67.3 13.3 129.6 39.8 186.5-30.8 3.6-60.1 10.8-87.4 21.6-40.8 16.1-76 38.3-104.9 65.9-27.4 26.3-51.9 58.1-72.7 94.7-20 35.1-36.1 71.7-48 108.9-11.4 35.7-21 74.8-28.4 116.2-7.3 40.9-12.3 79.8-14.8 115.5-2.4 34.9-3.6 71.1-3.6 107.6 0 96.7 30.8 175.1 91.6 233 60 57.1 139.2 86 235.4 86h874c96.2 0 175.4-28.9 235.4-86 60.8-57.9 91.6-136.3 91.6-233 0-36.6-1.2-72.8-3.6-107.7zM666.9 321c63.9-63.9 138.8-94.9 229.1-94.9s165.2 31.1 229.1 94.9c63.9 63.9 94.9 138.8 94.9 229.1 0 90.3-31.1 165.2-94.9 229.1-34.9 34.9-73.1 60-115.4 75.6C972 866.9 933.7 873 896 873s-76-6.1-113.7-18.2c-42.2-15.6-80.4-40.7-115.4-75.6-63.8-63.9-94.9-138.9-94.9-229.1 0-90.3 31.1-165.2 94.9-229.1zm818.7 1192c-37.4 35.6-87.4 53-152.6 53H459c-65.3 0-115.2-17.3-152.6-53-36.6-34.8-54.4-82.6-54.4-146 0-33.8 1.1-67.2 3.4-99.4 2.2-31.4 6.6-65.9 13.2-102.5 6.5-36.2 14.8-70.1 24.6-100.8 9.4-29.2 22.1-58.2 38-86.1 15-26.5 32.3-49.1 51.3-67.3 17.6-16.8 39.8-30.7 66.1-41.1 23.8-9.4 50.6-14.7 79.6-15.6 3.7 2 9.8 5.6 19 11.6 22 14.4 47.3 30.6 75 48.3 32.3 20.6 72.1 38.4 121.6 54.5 47.3 17.1 98.1 25.6 152.1 25.6s104.8-8.6 152.1-25.6c49.6-16 89.4-33.9 121.7-54.5 27.7-17.7 52.9-33.9 75-48.3 9.2-6 15.3-9.6 19-11.6 29.1 1 55.8 6.2 79.6 15.6 26.3 10.4 48.5 24.2 66.1 41.1 19 18.2 36.3 40.8 51.3 67.3 15.9 27.9 28.7 56.9 38 86.1 9.8 30.7 18.1 64.6 24.6 100.8 6.6 36.7 11 71.2 13.2 102.5 2.2 32.1 3.4 65.6 3.4 99.4.1 63.4-17.7 111.1-54.3 146z"/><path class="st0" d="M-167.4 1262.6l96.3-84.3"/></svg>